<svg id="Camada_1" data-name="Camada 1" xmlns="http://www.w3.org/2000/svg" viewBox="0 0 80.07 64.06"><defs><style>.cls-1{fill:#fff;}</style></defs><path class="cls-1" d="M50,82c-8.5,0-17,0-25.49,0C15.2,81.91,10.06,76.73,10,67.36q-.09-17.49,0-35c.05-9.05,5.24-14.31,14.24-14.35Q50,17.91,75.73,18c9,0,14.19,5.31,14.25,14.35q.1,17.74,0,35.49c-.07,8.75-5.29,14-14,14.11S58.66,82,50,82Zm0-23.64L16,40.05c0,9.44,0,18,0,26.61,0,7,2.31,9.31,9.2,9.33,10.48,0,21,.09,31.44,0C88.08,75.71,83.69,80.11,84,48.88c0-2.69,0-5.38,0-8.77Zm33.8-25c-.06-6.84-2.23-9.27-8.17-9.29q-25.73-.11-51.45,0c-6.1,0-8.49,3-7.68,9.45L50.07,51.57Z" transform="translate(-9.96 -17.97)"/></svg>