<svg id="Camada_1" data-name="Camada 1" xmlns="http://www.w3.org/2000/svg" viewBox="0 0 74.07 74.04"><path d="M49.52,87H18c-1,0-2,.07-3,0a2.21,2.21,0,0,1-2-1.87,15.68,15.68,0,0,1,0-3V17.63a20.82,20.82,0,0,1,0-2.5A2.2,2.2,0,0,1,15.27,13c.83,0,1.67,0,2.5,0h64.5c.67,0,1.34,0,2,0,1.81.11,2.61.89,2.75,2.62,0,.49,0,1,0,1.5V82.62c0,.5,0,1,0,1.5-.12,2.1-.84,2.84-3,2.87-4,0-8,0-12,0Z" transform="translate(-12.97 -12.98)" fill="#fff"/><path d="M65.19,76.91h-11V54.15h-8v-8H54V37.4A12,12,0,0,1,66.38,25c2.8,0,5.6,0,8.51,0v9c-1.71,0-3.49,0-5.27,0-2.94,0-4.53,1.53-4.59,4.34,0,2.46,0,4.93,0,7.55h8.54c.88,1.37.51,2.75.39,4a6.87,6.87,0,0,1-1.37,3.85c-.55.6-2.17.24-3.31.26-1.3,0-2.61,0-4.08,0Z" transform="translate(-12.97 -12.98)" fill="#143955"/></svg>