<svg id="Camada_1" data-name="Camada 1" xmlns="http://www.w3.org/2000/svg" viewBox="0 0 75.46 75.55"><path d="M49.92,12.23c6.33,0,12.66-.07,19,0S81.18,14.13,84.68,20a16.32,16.32,0,0,1,2.5,7.41c.4,13.81.55,27.62.55,41.44,0,4-.62,7.93-3.09,11.36a15.8,15.8,0,0,1-12.08,7l-.5,0c-13.48.17-26.95.43-40.43.44-4.32,0-8.59-.68-12.25-3.48A15.35,15.35,0,0,1,13,73.38a93.26,93.26,0,0,1-.59-9.45c-.1-10.83-.2-21.65-.06-32.48a25.32,25.32,0,0,1,1.56-8.72c2.9-7.37,9-10.34,16.54-10.52,6.49-.16,13,0,19.48,0ZM77.13,50.06c0-4-.1-8,0-12A14.7,14.7,0,0,0,62,23q-12,.15-24,0a14.64,14.64,0,0,0-15,14.75c0,8.17,0,16.33,0,24.5A14.67,14.67,0,0,0,37.92,77.06c8-.09,16-.15,24,0a14.76,14.76,0,0,0,15.22-15C77.07,58.06,77.13,54.06,77.13,50.06Z" transform="translate(-12.27 -12.13)" fill="#fff"/><path d="M73.05,49.86c0,3.83.06,7.66,0,11.49-.13,7.3-4.21,11.5-11.44,11.6-7.65.11-15.32.11-23,0-7.27-.1-11.39-4.27-11.48-11.56-.09-7.65-.1-15.32,0-23,.09-7,4.23-11.23,11.17-11.35q11.73-.2,23.48,0c7,.11,11.06,4.32,11.23,11.3C73.13,42.2,73.05,46,73.05,49.86ZM50.12,35.37c-8.71.77-14.56,6.05-14.49,14.74s5.78,13.81,14.2,14.48c7.5.61,15.1-6.73,14.83-14.43C64.38,42.1,59.47,36.21,50.12,35.37Zm18.7-.91a3.5,3.5,0,0,0-2.64-3.15,3.06,3.06,0,0,0-3.28,2.88,2.54,2.54,0,0,0,2.47,3A3.07,3.07,0,0,0,68.82,34.46Z" transform="translate(-12.27 -12.13)" fill="#fff"/><path d="M49.87,39.82C56,39.73,60.3,43.94,60.29,50a9.77,9.77,0,0,1-10,10.17C44.19,60.29,39.89,56.07,39.9,50A9.74,9.74,0,0,1,49.87,39.82Z" transform="translate(-12.27 -12.13)" fill="#fff"/></svg>