<svg id="Camada_1" data-name="Camada 1" xmlns="http://www.w3.org/2000/svg" viewBox="0 0 100 100"><path d="M8.59,0H91.41a2.3,2.3,0,0,0,.43.18,10.13,10.13,0,0,1,5.88,3.54A12.38,12.38,0,0,1,100,8.59V91.41a1.48,1.48,0,0,0-.17.33A10.06,10.06,0,0,1,89.69,100H10.31a11.08,11.08,0,0,1-2.7-.31A10.07,10.07,0,0,1,0,89.6V10.41c0-.29,0-.59,0-.88a10,10,0,0,1,3.4-7A12,12,0,0,1,8.59,0ZM55,84.94V59.45c0-.62,0-1.24.08-1.85a7.55,7.55,0,0,1,9.37-6.28A7.63,7.63,0,0,1,70,59q0,12.36,0,24.71v1.17H85c0-.27,0-.49,0-.71,0-9.21,0-18.42,0-27.63a16.84,16.84,0,0,0-6.24-13.35C72,37.54,63,37.36,56.38,44.25c-.43.44-.81.94-1.41,1.65V40.09H40.09V84.94ZM29.94,85V40.09H15.09V85Zm1.53-62.44a9,9,0,1,0-9,9A9,9,0,0,0,31.47,22.51Z" transform="translate(0)" fill="#fff"/></svg>