<svg id="Camada_1" data-name="Camada 1" xmlns="http://www.w3.org/2000/svg" viewBox="0 0 92.29 92.53"><path d="M3.85,96.27c1.35-9,4.33-16.06,6-24C3.7,60.85,2.13,48.4,6.31,35.53A45,45,0,0,1,25.22,11.09a46,46,0,0,1,63,64.47C77.36,91.69,54,102.71,28.2,90.48ZM73.69,60.09,62.18,54.75l-5.86,6.51A30.71,30.71,0,0,1,38.21,46L42.5,39.8l-5-11.44c-5-1.69-7.58,0-10,4.41-2.55,4.66-1.84,9.42.62,13.84,5,8.89,11.72,16.19,20.81,21a47.79,47.79,0,0,0,10.74,3.92C66.61,73.19,75.62,68.11,73.69,60.09Z" transform="translate(-3.85 -3.73)"/></svg>