<svg xmlns="http://www.w3.org/2000/svg" viewBox="0 0 2247.9 415.63" xmlns:v="https://vecta.io/nano"><path d="M1861.6 259.79c-11.59 8.22-23.45 15.82-37.88 18.2-17.19 2.83-30-6.21-31.5-23.52-1-11.57-.37-23.28-.41-34.92 0-2.63.23-5.25.42-9.13-3.65 2.82-6.64 4.81-9.25 7.21q-32.54 30-65 60.08a51.5 51.5 0 0 1-7.75 6.27c-7.67 4.68-16.21 0-16-9a32.59 32.59 0 0 1 2.44-11.09 270.76 270.76 0 0 1 38.63-66.73 24.34 24.34 0 0 1 6.25-5.64c5.12-3.16 10.08-.37 9.75 5.63a23 23 0 0 1-2.8 8.92l-21.64 41c-1 2-1.77 4.1-2.64 6.16l1.08.94c1.44-1.08 3-2.07 4.32-3.25l47-40.42a75.27 75.27 0 0 1 10.98-7.86c7.6-4.39 13.3-1.34 13.64 7.41.28 7-.35 14-.37 21 0 7.32-.19 14.68.43 22 1.26 14.91 9.55 21.46 24.24 19.21 16.63-2.55 29.67-12.11 42.16-22.52 1-.79 1.43-2.21 2-3.4 26-53.76 53.16-106.92 83-158.68a46.19 46.19 0 0 0 2.35-6c-2.78-.19-4.71-.5-6.62-.43l-109.37 4.55c-21.57 1.32-43 4.74-64.51 7.17-3 .34-6.09 1-8.92.4-2.23-.45-5.38-2.25-5.8-4s1.59-5.54 3.32-6.12c7-2.37 14.29-5.12 21.58-5.47l113.38-4.25 56.94-2.14c4.57-.16 7.61-2 9.94-6.17q14.85-26.3 30.21-52.28a34.09 34.09 0 0 1 6.81-8.54 14.25 14.25 0 0 1 7.95-3.49c7.73-.37 10.68 5.1 6.43 11.76l-33.06 51.17c-1.22 1.89-2.23 3.91-3.67 6.47 2.24.19 3.66.4 5.08.42q80.23.83 160.46 1.73c3.81 0 5.92-1.06 8.06-4.19 13.1-19.13 27.07-37.59 44.19-53.41 5-4.67 10.6-8.6 17.77-9.42 12.49-1.42 20.67 5.1 19.64 17.52-.75 9.13-3.38 18.25-6.33 27-2.69 8-6.93 15.39-10.89 23.92l11.92.63c4.32.24 8.65.37 13 .8 2.57.26 6.08.49 5.35 4.23-.67 3.43-3.23 4-6.95 3.23-7.59-1.59-15.37-2.21-23.05-3.33-3.1-.45-4.66.92-6.24 3.52-23.26 38.11-49.89 73.64-82.28 104.54-8.76 8.36-18.65 15.56-28.17 23.1-5.43 4.31-7.29 6.88-7.86 13.28l7.22-4.48.87.94-8.75 7.84c-1.21 1.1-2.79 2.11-3.38 3.51-6.44 15.37-10.15 31.37-9.16 48.08.76 12.78 8.71 19 20.94 15.75a84.69 84.69 0 0 0 22.28-9.56c24-14.71 44.19-34.24 63.94-54.1 13.28-13.36 26.09-27.17 39.2-40.68a56.2 56.2 0 0 1 7.66-6.34c.91-.65 2.4-.49 5.09-.95a50.4 50.4 0 0 1-3.21 4.35c-22.72 23-44.95 46.51-68.4 68.74-14.2 13.46-30.12 25.14-45.65 37.14-4.5 3.48-10.12 5.79-15.55 7.78-20 7.31-34.85-2.86-36.21-24.16-.73-11.49-.41-22.78 3.51-33.74l.15-1.6-1.15.32c-17.49 10.64-35.28 20.77-54.85 27.13a125.08 125.08 0 0 1-22.28 5.09c-13.37 1.75-21.09-5.16-20.22-18.49.52-8 2.94-15.84 4.52-23.84l-3.63 2.23-32.8 20a26.87 26.87 0 0 1-7.84 3.13c-6.51 1.45-11.35-4.06-9.49-10.47 4.74-16.33 14.09-29.7 26.8-40.7 11.77-10.19 26.06-9.28 37.48 1.91a7.51 7.51 0 0 0 1 0l7.28-1.26c.34 3.12 1.79 6.66.81 9.3-3.06 8.24-7.35 16-10.55 24.2a87 87 0 0 0-5 17.65c-1.25 7.54 2.18 10.93 9.84 10.67 15.22-.51 29.57-4.8 43.07-11.46 12.21-6 24-13 35.85-19.62a7.67 7.67 0 0 0 3.33-3.46l18.44-49.08c13.79-35.72 29.17-70.67 49.53-103.24.58-.92 1-2 1.79-3.68h-5.9l-158.91 1.57c-7.45.05-11.7 3.41-15 9.39l-44.12 79.92-29 54.58-.85 2.27 1 .71.91-1.77 7.38-6.2 1.09.94c-1.14 1.64-2 3.62-3.46 4.86-13 10.94-20.21 25.63-27.33 40.52-14.35 30-28.72 59.91-38.92 91.64-.66 2.05-1 4.19-1.68 6.25-1 3.35-1.3 6.15 3.12 7.29.91.24 2.24 2.59 2.05 2.8-2.19 2.47-4.26 5.48-7.09 6.84-3 1.45-6.23-.44-6.79-3.9a32.55 32.55 0 0 1-.2-11.76c4.74-22.22 13.86-42.93 22.75-63.69 5.74-13.43 11.87-26.7 17.82-40.05l.26-1.5zm242.24-62.21l1.92 1.46c42.39-31.68 72.25-73.87 99.75-120.38-12 0-22.64.31-33.21-.14-5-.21-7.67 1.37-10.25 5.61-20 32.89-36.59 67.54-53.15 102.21-1.74 3.7-3.3 7.49-5.03 11.24zm66.36-125.89l.38 1.82 34.83-.09c1.35 0 3.35-.88 3.93-1.95 7-13 14-26 17-40.67 1-4.88 2.65-10.67-2.55-13.64s-10 .82-13.65 4.47c-15.14 15.19-28.08 32.2-39.91 50.06zm-190.51 146.69c-4.47-6-7.93-6.87-13.11-3.64a63.4 63.4 0 0 0-20.86 21.78c-.91 1.51-1.06 3.47-1.56 5.23l1.43 1.18zm112.84 5.26l-.19.35h.7c-.05-.11-.08-.27-.17-.34s-.27-.01-.34-.01zm-367.82 30.91c-.11.1-.29.19-.3.3s.15.23.24.35c.1-.1.29-.19.3-.3s-.16-.26-.24-.38z" fill="#636262"/><path d="M174.28 168.96l10.89 22.89 50.6 110.57c1.59 3.44 1.31 5.36-1.7 7.89-51.79 43.61-132.39 43.41-183.65-.6-.38-.32-.84-.56-1.52-1l17.17-38.3q22.47-49.17 45.09-98.28a19.55 19.55 0 0 1 1-1.71c1.37 1.19 2.8 2.31 4.08 3.58l22.94 22.77c1.65 1.61 3.6 4.28 6.25 1.62l28.85-29.43z" fill="#205781"/><path d="M810.14 224.08q25.61 35.76 52.53 73.4c-11.53 0-22.13.16-32.72-.17-1.62-.05-3.54-2.09-4.69-3.68q-23.14-32-46-64.11a8.17 8.17 0 0 0-7.81-3.91c-8.94.23-17.9.08-27.26.08v71.54h-29.54V195.94h5.54 64.49a75.35 75.35 0 0 0 13.44-.88c20.8-3.91 32.13-19.92 29.71-41.58s-15.6-33.8-37.58-34l-70-.05h-5.65V89.89c1.33-.12 2.6-.34 3.87-.34l62 .15a133.78 133.78 0 0 1 28.63 3.64c31.09 7.77 47.72 28.55 48.55 60.58.6 23-6.44 43.17-25.31 57.55-6.53 4.96-14.33 8.17-22.2 12.61zm313.28 23.76l12.87 28.25c-6.26 4.13-12.28 8.85-18.94 12.36-60.62 32-139.33-6.21-152.15-73.68-11.9-62.6 31.55-121 94.86-127.09 26.52-2.53 50.88 3.68 72.23 20.27 3 2.36 3.62 4.28 1.84 7.79-3.75 7.4-7 15.06-10.79 23.38-19.93-20.22-44-25.7-70.78-20.25-19 3.88-34.18 14.45-45.52 30.24-22.29 31-17.64 74.43 10.13 100.59 26.78 25.23 75.83 29.75 106.25-1.86zm225.63 49.64c-10.67 0-20.44.14-30.19-.18-1.3 0-3-2.17-3.71-3.71q-22.58-49.45-45-99-8.64-19.08-17.26-38.18c-.72-1.59-1.57-3.11-2.76-5.45l-3.09 6.4q-30.78 67.92-61.49 135.87c-1.4 3.11-2.93 4.49-6.55 4.36-8.92-.31-17.86-.1-27.67-.1l98.83-212.94 98.89 212.93zM512.6 86.17l7.31 44.13a7.45 7.45 0 0 1-1 4.22q-43.26 83.19-86.61 166.33c-.15.29-.37.55-.86 1.27l-2.63-4.78q-42-80.77-83.84-161.6c-1.07-2.08-1.95-4.77-1.61-7 2.13-14.27 4.63-28.48 7.26-44.19l80.88 157.09 80.1-155.61z" fill="#225882"/><path d="M1482.29 137.64c11.72-12.24 22.87-25.12 35.35-36.55 10.48-9.61 22.4-17.69 33.93-26.1 3.43-2.5 7.61-4.13 11.64-5.62 15.76-5.85 28.05 2.51 28.91 19.43.71 13.89-2.94 26.92-9.58 38.77-24 42.9-58.81 73.53-105.66 89.36-10.9 3.68-22.66 4.82-34.27 7.18 0-.48-.11 0 0 .07 22.87 15.17 45.69 30.44 71.68 40 10.54 3.88 21.41 6 32.8 5 1.9-.17 5.38 1.46 5.73 2.85.9 3.59-2.48 4.11-5.15 4.36-15.61 1.52-30.45-1.68-44.87-7.41-22.67-9-43.67-21.1-64-34.43-.55-.36-1.13-.67-2.3-1.35l-9.54 23.36c-3.17 8.21-6.13 16.51-9 24.83-.61 1.78-.31 3.86-.71 5.74s-.76 4-1.93 5.35c-1 1.13-3.38 2.07-4.64 1.63a5.27 5.27 0 0 1-2.64-4.16 32.54 32.54 0 0 1 1.74-9.24l18.23-53.35-19.19-9.83c-2.65-1.35-5.48-2.42-8-4-3.41-2.18-4.58-5.52-2.46-9.06s5.64-2.89 8.87-1.53c1.51.63 2.74 2 4.27 2.53 5.89 2.13 11.82 4.18 17.8 6 3.82 1.18 5.63-.52 7.25-4.34l34.69-79.48c7.34-15.8 17.2-30.45 24.25-46.36a86.9 86.9 0 0 1 12.34-20.37c1.48-1.79 2.86-4.13 4.81-4.95 2.46-1 6.41-2 8-.73 1.92 1.5 2.77 5.32 2.71 8.11 0 2.2-2.1 4.39-3.34 6.54q-19.29 33.5-38.59 67l-1 1.35zm-36.22 75c9.09-1.69 17.35-2.69 25.31-4.82 25.14-6.7 46.46-20.37 65.48-37.68 15.35-14 28.69-29.72 37.9-48.47 5.3-10.8 9.2-22.21 7.55-34.57-1.34-10-7.41-13.49-16.74-9.61a83.71 83.71 0 0 0-13.56 7.33c-29.66 19.32-53.31 44.85-75 72.45a197.72 197.72 0 0 0-30.94 55.37z" fill="#636262"/><path d="M79.16 136.45l-18.89 41.2-42.58 91.24a17.86 17.86 0 0 1-1.88-2.4c-28.43-52.45-17.6-123.72 25.09-165.25a12.91 12.91 0 0 1 1.16-.91c1.72 1.55 3.49 3.05 5.14 4.67q16.01 15.69 31.96 31.45zm165.9-36.99c49.24 47.49 50.9 122.18 24 167.51-.71-1.33-1.35-2.42-1.89-3.56q-29-62.08-58-124.18c-.56-1.19-.94-2.47-1.4-3.72 1.5-1.25 3.1-2.41 4.49-3.78q16.4-16.09 32.8-32.27z" fill="#215882"/><path d="M926.77 297.21H897.6V89.89h29.22z" fill="#225882"/><path d="M79.16 136.45q-16-15.74-32-31.45l-5.14-4.67q20.37-20.49 40.75-41 27.14-27.15 54.38-54.2a41.55 41.55 0 0 1 5-3.69h0l-9.68 21.81q-25.59 54.93-51.29 109.82c-.58 1.17-1.35 2.25-2.02 3.38z" fill="#6698a9"/><path d="M245.06 99.46q-16.46 16.18-32.85 32.27c-1.39 1.37-3 2.53-4.49 3.78l-22.43-47.16q-19.45-41.46-38.72-83c-.69-1.49-1.12-3.09-1.68-4.64l.31-.32q18 17.65 35.91 35.32 30.9 30.54 61.73 61.14c.81.79 1.48 1.73 2.22 2.61z" fill="#6597a9"/><path d="M569.33 297.19v-29.35h118.12v29.35z" fill="#235983"/><path d="M569.31 119.07V89.8h118.13v29.27z" fill="#235882"/><path d="M547.6 297.32h-30.34l-5-30.7q-4.85-30.06-9.59-60.13c-.28-1.74-.64-3.88.08-5.31l21.91-42.61 22.94 138.75zm-232.17-.08l22.7-137.28 2.66 4.26 18 34.45a14.94 14.94 0 0 1 1.32 8.38l-14.15 89.12a4.63 4.63 0 0 1-.53 1.07z" fill="#225882"/><path d="M174.28 168.96l-28.85 29.42c-2.65 2.66-4.6 0-6.25-1.62l-22.94-22.77c-1.28-1.27-2.71-2.39-4.08-3.58l31.42-69.72 8.38 18.24q10.45 22.91 20.88 45.84a43.1 43.1 0 0 1 1.44 4.19z" fill="#6597a9"/><path d="M672.67 179.44v28.71H569.32v-28.71z" fill="#205781"/><path d="M1713.23 219.7a20.13 20.13 0 0 1-2.71 3.09c-34.44 26.41-71.29 48.38-113.57 59.8a51.32 51.32 0 0 1-20.68 1.1c-11.07-1.71-17.83-11.48-17.82-24.38a43.56 43.56 0 0 1 2.63-15.1c9.59-25.23 27.55-42.37 52.41-52.39 9.47-3.83 17.36-.34 18.15 8 .28 3-.25 6.77-2 9-4.44 5.71-9.1 11.62-14.86 15.82a185.67 185.67 0 0 1-26.6 15.71c-4.06 2-9.22 1.84-13.82 2.88-1.49.33-3.64 1.06-4.07 2.16-1.68 4.29-3.55 8.74-4 13.25-1 10.62 6.9 18.69 18.77 18.6a72.24 72.24 0 0 0 21.48-3.5c36.33-11.89 69.48-30.11 100.74-51.92l4.72-3.31zm-132.94 11.94c14-5.47 25.46-14.14 33.58-27-14.86 4.26-25.14 14.51-34.32 26.18l-.9 1.14z" fill="#646362"/><path d="M1445.6 358.44v-16.8h9.88l-2.78 72.47h-8.47v-10.38c-4.76 7.3-10.35 11.06-17.75 11.65-16.08 1.28-27.08-10-26-26.64 1.22-18.62 13-29.9 31.7-30.29 4.17-.08 8.32-.01 13.42-.01zm.07 8.72c-17.56-5.23-31.62 2-35.19 17.25-2.45 10.51 1.74 20.25 9.89 23 10.28 3.46 20.34-2 22.6-13.31 1.78-8.88 1.89-18.08 2.71-26.94zm243.83-25.38l-2.8 72.39h-8.38v-9.19c-.67.3-1.15.36-1.38.63-7.43 9.28-17.31 12.24-27.87 8.34-9.65-3.56-15.2-13-14.59-24.85 1-18.55 12.83-30.17 31.36-30.63 4.3-.11 8.59 0 13.53 0v-16.69zm-9.76 25c-2.45-.51-3.75-.85-5.06-1-15.57-2.26-26.85 4.69-30.15 18.55-2.44 10.23 1.5 20 9.26 22.91 10.25 3.9 20.84-1.54 23.17-13 1.79-8.9 1.9-18.11 2.78-27.45zm293.93 7.86c-3.65 8.71-3.88 8.86-12.61 8.81-11.79-.07-19.24-5.2-21.46-14.79a23.15 23.15 0 0 1 12.59-26.24 31.8 31.8 0 0 1 24.31-1.37c9.93 3.26 16.18 12.74 14 23.58a116.43 116.43 0 0 1-8.84 25.72c-3.57 7.63-8.7 14.55-13.39 21.62a6.6 6.6 0 0 1-4.3 2.37c-2.92.38-5.92.11-9.71.11 3.08-4.31 6-7.87 8.35-11.8 5.47-9.29 11.23-18.49 15.65-28.28 2.11-4.7 2.22-10.71 1.85-16-.45-6.47-4.95-10.31-11.33-11.57s-13.77 1.68-17.14 6.82-3.55 13.1-.13 17.49c4 5.19 9.85 5.72 15.86 5a60.44 60.44 0 0 0 6.3-1.47zm66.68 39.81c4.66-6.72 9.06-12.72 13.07-19 6.21-9.67 12.38-19.44 13.31-31.35.69-8.89-3.55-15.27-11.16-17.14-7.85-1.92-16.3 1.93-19.19 8.94-2.15 5.23-2.16 10.63 1.22 15.26 3.62 4.95 9.25 5.51 14.91 5a53.89 53.89 0 0 0 6.84-1.45c-2.72 8.17-3.42 8.68-11.95 8.67-12.09 0-19.66-5.18-21.85-14.94-2.471-10.821 3.083-21.874 13.24-26.35a31.68 31.68 0 0 1 23.85-1c9.834 3.109 15.808 13.059 13.93 23.2a69.87 69.87 0 0 1-5.9 19.93c-4.78 9.65-10.83 18.68-16.49 27.88a5.14 5.14 0 0 1-3.4 2.22c-3.18.32-6.52.13-10.43.13zm104.31-39.81c-3.6 8.67-3.88 8.86-12.57 8.81-11.8-.06-19.25-5.18-21.48-14.76a23.15 23.15 0 0 1 12.56-26.26 31.83 31.83 0 0 1 24.3-1.39c9.93 3.24 16.21 12.73 14 23.56a116.12 116.12 0 0 1-8.82 25.73c-3.58 7.63-8.71 14.54-13.39 21.61a6.66 6.66 0 0 1-4.29 2.4c-2.92.38-5.93.11-9.74.11 3.07-4.29 6-7.85 8.33-11.78 5.47-9.29 11.24-18.49 15.65-28.27 2.13-4.7 2.24-10.71 1.87-16-.44-6.48-4.93-10.33-11.3-11.59s-13.77 1.65-17.16 6.78-3.57 13.08-.15 17.5c4 5.21 9.83 5.74 15.84 5.06a57 57 0 0 0 6.35-1.51z" fill="#426d90"/><path d="M1538.82 384.57h-40.06c-3.78 19.81 8.41 27.37 35.36 22.25.92 5.2-1.17 7.7-6.5 7.8-4.15.08-8.29.81-12.43.77-15.84-.13-24.67-8.16-26.57-23.9-2.37-19.62 9.88-33.52 29.14-33.06 14.84.36 23.47 10.78 21.06 26.14zm-8.78-4.29c.42-10-4.45-15.65-13.29-15.79-9.73-.16-17.4 6.76-17.32 15.79zm238.15 26.42c.65 5.23-1.21 7.82-6.39 7.9-4.14.06-8.28.82-12.42.8-16.08-.11-25-8.26-26.8-24.21-2.17-19.44 10-33.14 29-32.76 14.9.3 23.42 10.41 21.35 25.87h-40c-4.88 19.47 9.13 28.27 35.26 22.4zm-4.35-26.49c1-9-3.58-14.95-11.86-15.69-9.89-.89-18.11 5.91-18.72 15.69z" fill="#426d91"/><path d="M607.08 77.8V58.55c0-.79.15-1.59.26-2.62h45.55V77.8z" fill="#2a5b85"/><path d="M1602.94 366.32c-6.07 0-11.75-.69-17.18.18-6 .95-7.55 6.36-3.39 10.79 3.4 3.62 7.46 6.62 11.28 9.83 5.83 4.92 10.87 10.26 8.13 18.75-2 6.23-9 9.64-18.7 9.56a57.33 57.33 0 0 1-8-.53c-8.1-1.21-8.1-1.27-7.8-9.89 3.31.93 6.54 1.92 9.81 2.72a19.14 19.14 0 0 0 4.93.61c4.46-.06 9-.58 10.77-5.48 1.66-4.6-1.58-7.42-4.73-10.06-4-3.32-8-6.54-11.79-10-4.29-3.95-6.83-8.78-5-14.74 1.94-6.23 7.11-8.84 13-9.27 5.07-.38 10.27.29 15.36.94 4.56.54 2.97 4.27 3.31 6.59z" fill="#446e91"/><path d="M1885.88 414.28h-9.93l2.6-63.47-7.53 4.22c-.66-10.92 3.79-14.25 18-13.36l-3.14 72.61z" fill="#416d90"/><path d="M142.16 1.46l.29-1.31.42.22-.75 1.06z" fill="#6698a9"/><path d="M144.89.69l-.62-.69.93.37z" fill="#6597a9"/></svg>